<?xml version="1.0" encoding="UTF-8"?>
<!DOCTYPE svg PUBLIC "-//W3C//DTD SVG 1.1//EN" "http://www.w3.org/Graphics/SVG/1.1/DTD/svg11.dtd">
<!-- Creator: CorelDRAW X7 -->
<svg xmlns="http://www.w3.org/2000/svg" xml:space="preserve" width="1024px" height="183px" version="1.1" style="shape-rendering:geometricPrecision; text-rendering:geometricPrecision; image-rendering:optimizeQuality; fill-rule:evenodd; clip-rule:evenodd"
viewBox="0 0 102400 18300"
 xmlns:xlink="http://www.w3.org/1999/xlink">
 <defs>
  <style type="text/css">
   <![CDATA[
    .fil0 {fill:url(#id0)}
    .fil1 {fill:url(#id1);fill-rule:nonzero}
   ]]>
  </style>
  <linearGradient id="id0" gradientUnits="userSpaceOnUse" x1="2951.34" y1="2929.14" x2="15393.1" y2="15371.1">
   <stop offset="0" style="stop-opacity:1; stop-color:#3E24FF"/>
   <stop offset="1" style="stop-opacity:1; stop-color:#18BDCF"/>
  </linearGradient>
  <linearGradient id="id1" gradientUnits="userSpaceOnUse" x1="21611.9" y1="10091.2" x2="102376" y2="10091.2">
   <stop offset="0" style="stop-opacity:1; stop-color:#432AFC"/>
   <stop offset="1" style="stop-opacity:1; stop-color:#27A9C7"/>
  </linearGradient>
 </defs>
 <g id="Layer_x0020_1">
  <metadata id="CorelCorpID_0Corel-Layer"/>
  <path class="fil0" d="M7222 10643c-7,5 -13,9 -20,14m-2217 -6351c2408,-2086 6001,-2077 8400,23l649 -648c-2758,-2457 -6930,-2464 -9697,-23l648 648zm4726 3913l1284 741c32,18 59,44 79,78 59,102 24,232 -77,291l-1286 742 0 0 -1 0 -1268 732c-35,25 -78,40 -123,40 -118,0 -213,-96 -213,-213l0 -1485 0 -1485 1 0c0,-36 9,-72 28,-106 58,-101 188,-136 289,-78l1275 736c4,2 8,4 12,7zm-6023 -5210c3127,-2797 7877,-2789 10994,24l648 -648c-3476,-3170 -8804,-3178 -12290,-24l648 648zm11649 684c2765,3118 2758,7832 -24,10941l649 648c3137,-3468 3145,-8760 23,-12238l-648 649zm-681 11598c-3109,2781 -7823,2789 -10941,24l-648 648c3477,3122 8769,3114 12237,-24l-648 -648zm-11601 -631c-2813,-3117 -2821,-7867 -24,-10994l-648 -648c-3154,3486 -3146,8814 24,12290l648 -648zm8687 -8111l0 0c671,663 1087,1583 1087,2601 0,2020 -1637,3657 -3657,3657 -2019,0 -3656,-1637 -3656,-3657 0,-1018 415,-1938 1086,-2601 84,-83 136,-198 136,-325 0,-253 -204,-458 -457,-458 -126,0 -239,51 -322,132l0 0c-839,829 -1359,1980 -1359,3252 0,1273 520,2423 1359,3252l0 0c84,83 136,198 136,326 0,252 -205,457 -457,457 -126,0 -240,-50 -322,-132l0 0c-1007,-995 -1631,-2376 -1631,-3903 0,-1527 624,-2908 1631,-3903l0 0c248,-245 589,-396 965,-396 758,0 1372,614 1372,1373 0,382 -156,727 -408,976l1 0c-503,497 -815,1187 -815,1950 0,1514 1227,2741 2741,2741 1514,0 2742,-1227 2742,-2741 0,-763 -312,-1453 -815,-1950l0 0c-252,-249 -408,-595 -408,-977 0,-758 615,-1372 1373,-1372 376,0 717,151 965,396 1006,995 1630,2376 1630,3903 0,1526 -623,2907 -1628,3901l-2 2c-83,82 -196,132 -322,132 -253,0 -457,-205 -457,-457 0,-127 52,-243 136,-326l-1 0c839,-829 1359,-1979 1359,-3252 0,-1272 -520,-2423 -1359,-3252l0 0c-82,-82 -196,-132 -321,-132 -253,0 -458,205 -458,458 0,127 52,242 136,325l0 0zm-8062 -2234c-2441,2767 -2433,6938 23,9697l649 -649c-2101,-2399 -2109,-5992 -24,-8400l-648 -648zm10360 675c2054,2399 2047,5957 -24,8347l649 648c2425,-2750 2433,-6885 23,-9644l-648 649zm-681 9004c-2390,2070 -5948,2078 -8347,23l-648 649c2758,2410 6894,2402 9644,-23l-649 -649z"/>
  <path class="fil1" d="M24152 12230c-434,0 -810,-76 -1128,-230 -317,-153 -581,-367 -789,-643 -209,-276 -365,-603 -468,-982 -103,-378 -155,-793 -155,-1245 0,-451 52,-866 155,-1244 103,-379 259,-707 468,-982 208,-276 472,-492 789,-648 318,-156 694,-234 1128,-234 434,0 810,78 1128,234 317,156 581,372 790,648 208,275 363,603 463,982 101,378 151,793 151,1244 0,452 -50,867 -151,1245 -100,379 -255,706 -463,982 -209,276 -473,490 -790,643 -318,154 -694,230 -1128,230zm75952 -4386c61,-11 119,-20 175,-25 56,-6 114,-9 176,-9 61,0 122,3 183,9 62,5 117,14 167,25 17,83 34,193 51,330 16,136 25,252 25,346 117,-189 271,-353 463,-492 193,-140 439,-209 740,-209 44,0 90,1 138,4 47,3 87,7 121,12 11,51 19,103 25,159 5,56 8,114 8,176 0,66 -4,136 -12,208 -9,73 -18,142 -29,209 -45,-11 -91,-16 -138,-16 -48,0 -85,0 -113,0 -151,0 -294,20 -430,62 -137,42 -259,116 -368,222 -109,106 -195,250 -259,434 -64,184 -96,421 -96,710l0 2131c-61,11 -130,20 -205,25 -75,6 -143,8 -205,8 -61,0 -129,-2 -204,-8 -75,-5 -147,-14 -213,-25l0 -4286zm-4028 2348c11,467 133,810 364,1027 231,218 572,326 1023,326 396,0 772,-69 1128,-209 45,84 81,185 109,305 28,120 44,238 50,355 -184,78 -386,137 -606,176 -220,39 -463,58 -731,58 -390,0 -724,-54 -1002,-163 -279,-108 -509,-261 -690,-459 -181,-198 -313,-432 -397,-702 -83,-270 -125,-567 -125,-890 0,-317 40,-614 121,-890 81,-275 205,-515 372,-718 167,-204 377,-365 631,-485 253,-120 553,-180 898,-180 295,0 554,51 777,151 223,100 410,238 560,413 150,176 265,385 343,627 77,242 116,506 116,790 0,78 -2,160 -8,246 -5,87 -11,160 -17,222l-2916 0zm2123 -619c0,-156 -21,-305 -63,-447 -42,-142 -103,-266 -184,-372 -81,-105 -184,-190 -309,-254 -125,-64 -274,-96 -447,-96 -340,0 -600,103 -781,309 -181,206 -291,493 -330,860l2114 0zm-5573 2565c-45,0 -91,2 -138,4 -48,3 -93,5 -138,5 -56,0 -114,-2 -176,-5 -61,-2 -111,-6 -150,-12l-1420 -4286c72,-11 147,-18 225,-21 78,-3 151,-4 217,-4 73,0 154,1 243,4 89,3 164,10 225,21l1187 3985 1228 -3985c117,-17 253,-25 409,-25 62,0 131,1 209,4 78,3 156,10 234,21l-1662 5155c-78,228 -159,421 -243,576 -83,157 -178,282 -284,376 -106,95 -224,162 -355,201 -131,39 -283,58 -455,58 -128,0 -255,-9 -380,-29 -126,-19 -236,-43 -330,-71 0,-128 11,-242 33,-342 22,-101 56,-201 100,-301 50,17 119,35 205,54 86,20 179,29 280,29 72,0 140,-7 205,-20 64,-14 123,-42 179,-84 56,-42 107,-102 155,-180 47,-78 93,-184 138,-317l259 -811zm-3518 -2022c-84,-11 -189,-22 -317,-33 -129,-11 -237,-17 -326,-17 -346,0 -609,64 -790,192 -181,129 -271,324 -271,585 0,167 30,298 92,393 61,95 137,167 229,217 92,50 194,81 305,92 112,11 217,17 318,17 128,0 260,-7 397,-21 136,-14 257,-35 363,-63l0 -1362zm0 -810c0,-329 -84,-557 -251,-685 -167,-128 -409,-192 -726,-192 -195,0 -378,15 -548,46 -170,30 -335,71 -497,121 -106,-184 -159,-404 -159,-660 190,-62 399,-109 627,-142 228,-34 448,-51 660,-51 557,0 980,127 1270,381 290,253 435,658 435,1215l0 2682c-195,45 -432,91 -711,138 -278,48 -562,71 -852,71 -273,0 -519,-25 -739,-75 -220,-50 -407,-131 -560,-242 -153,-112 -272,-254 -355,-426 -84,-173 -126,-382 -126,-627 0,-240 49,-450 147,-631 97,-181 229,-331 396,-451 168,-120 360,-209 577,-267 217,-59 446,-88 685,-88 178,0 325,4 439,12 114,9 210,19 288,30l0 -159zm-4771 -3300c61,-12 130,-20 205,-26 75,-5 143,-8 205,-8 61,0 129,3 204,8 76,6 144,14 205,26l0 4829c0,156 14,278 42,368 28,89 65,157 113,204 47,48 103,78 167,92 64,14 132,21 204,21 51,0 108,-3 172,-8 64,-6 118,-14 163,-25 50,195 75,406 75,635 -78,28 -173,46 -284,54 -112,8 -215,13 -309,13 -162,0 -312,-20 -452,-59 -139,-39 -261,-103 -367,-192 -106,-89 -190,-209 -251,-359 -61,-151 -92,-337 -92,-560l0 -5013zm-4645 108c83,-11 182,-22 296,-33 114,-11 234,-21 360,-29 125,-9 250,-16 375,-21 126,-6 247,-9 364,-9 306,0 597,31 873,92 276,61 518,167 727,318 209,150 375,349 497,597 123,248 184,559 184,932 0,390 -65,714 -196,973 -131,259 -304,467 -519,623 -214,156 -458,266 -730,330 -273,64 -552,96 -836,96 -106,0 -199,-2 -280,-4 -81,-3 -168,-10 -263,-21l0 2172c-134,17 -276,25 -426,25 -67,0 -138,-1 -213,-4 -76,-3 -147,-10 -213,-21l0 -6016zm852 3100c89,11 167,20 234,25 67,6 164,8 292,8 173,0 344,-18 514,-54 170,-36 322,-102 455,-196 134,-95 241,-224 322,-389 81,-164 121,-377 121,-639 0,-228 -34,-421 -104,-576 -70,-156 -166,-282 -288,-376 -123,-95 -271,-162 -443,-201 -173,-39 -359,-58 -560,-58 -206,0 -387,8 -543,25l0 2431zm-4955 902c-83,-11 -189,-22 -317,-33 -128,-11 -237,-17 -326,-17 -346,0 -609,64 -790,192 -181,129 -271,324 -271,585 0,167 30,298 92,393 61,95 137,167 229,217 92,50 194,81 305,92 112,11 218,17 318,17 128,0 260,-7 397,-21 136,-14 257,-35 363,-63l0 -1362zm0 -810c0,-329 -83,-557 -250,-685 -168,-128 -410,-192 -727,-192 -195,0 -378,15 -548,46 -170,30 -335,71 -497,121 -106,-184 -158,-404 -158,-660 189,-62 398,-109 626,-142 229,-34 448,-51 660,-51 557,0 981,127 1270,381 290,253 435,658 435,1215l0 2682c-195,45 -432,91 -711,138 -278,48 -562,71 -852,71 -273,0 -519,-25 -739,-75 -220,-50 -407,-131 -560,-242 -153,-112 -272,-254 -355,-426 -84,-173 -126,-382 -126,-627 0,-240 49,-450 147,-631 97,-181 230,-331 397,-451 167,-120 359,-209 576,-267 217,-59 446,-88 685,-88 178,0 325,4 439,12 114,9 210,19 288,30l0 -159zm-4420 -811l-543 0c-11,-44 -19,-96 -25,-154 -6,-59 -8,-116 -8,-171 0,-56 2,-113 8,-172 6,-58 14,-110 25,-154l1354 0 0 4286c-62,11 -130,20 -205,25 -75,6 -143,8 -205,8 -55,0 -121,-2 -196,-8 -75,-5 -144,-14 -205,-25l0 -3635zm-184 -1595c-11,-67 -18,-140 -21,-218 -2,-78 -4,-147 -4,-208 0,-62 2,-131 4,-209 3,-78 10,-148 21,-209 73,-11 151,-20 234,-25 84,-6 156,-9 218,-9 61,0 133,3 217,9 83,5 159,14 225,25 12,61 19,131 21,209 3,78 5,147 5,209 0,61 -2,130 -5,208 -2,78 -9,151 -21,218 -66,11 -140,19 -221,25 -81,5 -152,8 -213,8 -67,0 -142,-3 -226,-8 -83,-6 -161,-14 -234,-25zm-2214 -894c61,-12 131,-20 209,-26 78,-5 145,-8 201,-8 61,0 129,3 204,8 76,6 144,14 205,26l0 6007c-212,61 -448,113 -710,155 -262,41 -554,62 -877,62 -301,0 -587,-37 -857,-112 -270,-76 -505,-200 -706,-372 -200,-173 -359,-396 -476,-669 -117,-273 -176,-610 -176,-1011 0,-345 52,-660 155,-944 103,-284 249,-528 439,-731 189,-203 416,-361 681,-472 264,-111 558,-167 881,-167 145,0 291,11 439,33 147,23 277,50 388,84l0 -1863zm0 2565c-111,-45 -231,-78 -359,-101 -128,-22 -267,-33 -418,-33 -228,0 -426,42 -593,125 -167,84 -305,198 -414,343 -108,145 -189,316 -242,514 -53,197 -79,413 -79,647 5,529 131,908 376,1137 245,228 579,342 1002,342 145,0 279,-7 401,-21 123,-14 232,-35 326,-62l0 -2891zm-6776 1621c11,467 132,810 364,1027 231,218 572,326 1023,326 396,0 772,-69 1128,-209 45,84 81,185 109,305 28,120 44,238 50,355 -184,78 -386,137 -606,176 -220,39 -464,58 -731,58 -390,0 -724,-54 -1003,-163 -278,-108 -508,-261 -689,-459 -181,-198 -313,-432 -397,-702 -83,-270 -125,-567 -125,-890 0,-317 40,-614 121,-890 81,-275 205,-515 372,-718 167,-204 377,-365 631,-485 253,-120 552,-180 898,-180 295,0 554,51 777,151 223,100 409,238 560,413 150,176 264,385 342,627 78,242 117,506 117,790 0,78 -3,160 -8,246 -6,87 -11,160 -17,222l-2916 0zm2122 -619c0,-156 -21,-305 -62,-447 -42,-142 -103,-266 -184,-372 -81,-105 -184,-190 -309,-254 -126,-64 -275,-96 -447,-96 -340,0 -600,103 -781,309 -182,206 -291,493 -331,860l2114 0zm-9324 -3451c67,-11 143,-19 230,-25 86,-5 168,-8 246,-8 78,0 163,3 255,8 92,6 168,14 230,25l1554 3760 1562 -3760c56,-11 126,-19 209,-25 84,-5 164,-8 242,-8 73,0 154,3 243,8 89,6 164,14 225,25l284 6008c-66,11 -135,20 -204,25 -70,6 -141,8 -213,8 -73,0 -144,-2 -213,-8 -70,-5 -136,-14 -197,-25l-192 -4671 -1470 3426c-112,17 -226,25 -343,25 -106,0 -212,-8 -317,-25l-1421 -3451 -192 4696c-61,11 -125,20 -192,25 -67,6 -131,8 -193,8 -72,0 -141,-2 -208,-8 -67,-5 -131,-14 -192,-25l267 -6008zm-6770 0c61,-11 127,-19 196,-25 70,-5 144,-8 222,-8 72,0 145,3 217,8 73,6 142,14 209,25l0 5256 2356 0c11,61 18,125 21,192 3,67 4,128 4,184 0,134 -8,259 -25,376l-3200 0 0 -6008zm-2214 2900c67,-11 137,-20 209,-25 72,-6 145,-9 217,-9 73,0 145,3 217,9 73,5 140,14 201,25l0 2933c-117,50 -245,93 -384,129 -140,36 -285,64 -435,84 -150,19 -301,34 -451,46 -151,11 -293,16 -426,16 -446,0 -847,-69 -1203,-209 -357,-139 -658,-341 -903,-605 -245,-265 -433,-587 -564,-965 -131,-379 -196,-808 -196,-1287 0,-479 67,-912 200,-1299 134,-388 325,-718 573,-991 248,-272 543,-483 885,-630 343,-148 723,-222 1141,-222 317,0 593,21 827,63 234,42 446,99 635,171 -11,128 -35,247 -71,355 -36,109 -79,225 -129,347 -156,-50 -325,-95 -506,-134 -181,-39 -408,-58 -681,-58 -295,0 -564,53 -806,159 -243,106 -448,260 -618,463 -170,204 -303,454 -397,752 -95,298 -142,640 -142,1024 0,395 48,736 146,1023 97,287 235,527 413,719 179,192 389,334 631,426 243,92 511,138 806,138 179,0 335,-10 468,-29 134,-20 248,-43 343,-71l0 -2348zm-8372 -1178c61,-11 121,-20 180,-25 58,-6 118,-9 179,-9 62,0 119,3 172,9 52,5 110,14 171,25 17,83 33,196 50,338 17,142 25,261 25,355 56,-94 127,-189 213,-284 86,-95 185,-180 297,-255 111,-75 239,-136 384,-183 145,-48 304,-72 476,-72 490,0 852,141 1086,422 234,282 351,698 351,1249l0 2716c-61,11 -130,20 -209,25 -78,6 -147,8 -208,8 -62,0 -130,-2 -205,-8 -75,-5 -144,-14 -205,-25l0 -2490c0,-395 -61,-686 -184,-873 -122,-187 -317,-280 -585,-280 -155,0 -303,28 -442,84 -140,55 -262,142 -368,259 -106,117 -191,268 -255,455 -64,187 -96,411 -96,673l0 2172c-61,11 -129,20 -205,25 -75,6 -143,8 -204,8 -61,0 -131,-2 -209,-8 -78,-5 -148,-14 -209,-25l0 -4286zm-4027 2348c11,467 132,810 363,1027 231,218 573,326 1024,326 395,0 771,-69 1128,-209 44,84 80,185 108,305 28,120 45,238 50,355 -183,78 -385,137 -605,176 -220,39 -464,58 -731,58 -390,0 -724,-54 -1003,-163 -279,-108 -508,-261 -689,-459 -181,-198 -314,-432 -397,-702 -84,-270 -126,-567 -126,-890 0,-317 41,-614 122,-890 80,-275 204,-515 371,-718 167,-204 378,-365 631,-485 254,-120 553,-180 898,-180 296,0 555,51 777,151 223,100 410,238 560,413 151,176 265,385 343,627 78,242 117,506 117,790 0,78 -3,160 -9,246 -5,87 -11,160 -16,222l-2916 0zm2122 -619c0,-156 -21,-305 -63,-447 -41,-142 -103,-266 -184,-372 -80,-105 -183,-190 -309,-254 -125,-64 -274,-96 -447,-96 -339,0 -600,103 -781,309 -181,206 -291,493 -330,860l2114 0zm-7679 -1729c56,-11 113,-20 172,-25 58,-6 118,-9 179,-9 56,0 115,3 176,9 61,5 120,14 175,25 6,11 13,46 21,104 9,59 17,121 25,188 9,67 17,131 25,192 9,62 13,101 13,117 56,-89 122,-175 200,-259 78,-83 172,-158 280,-225 109,-67 231,-120 368,-159 136,-39 288,-59 455,-59 251,0 484,42 698,126 214,83 398,213 551,388 154,176 273,399 360,669 86,270 129,589 129,956 0,736 -199,1311 -597,1726 -399,415 -963,622 -1692,622 -123,0 -248,-8 -376,-25 -128,-16 -240,-39 -334,-67l0 1964c-67,11 -138,19 -213,25 -76,5 -144,8 -205,8 -61,0 -130,-3 -205,-8 -75,-6 -143,-14 -205,-25l0 -6258zm828 3584c105,39 214,67 325,84 112,16 257,25 435,25 201,0 384,-32 551,-96 167,-64 311,-163 431,-297 120,-134 214,-302 284,-505 69,-204 104,-445 104,-723 0,-446 -82,-800 -246,-1061 -165,-262 -433,-393 -807,-393 -139,0 -272,25 -401,75 -128,50 -242,126 -342,226 -100,100 -181,227 -242,380 -62,153 -92,336 -92,547l0 1738zm-4529 67c279,0 519,-54 723,-163 203,-109 372,-266 505,-472 134,-206 234,-454 301,-744 67,-289 100,-618 100,-986 0,-362 -33,-689 -100,-981 -67,-293 -167,-541 -301,-744 -133,-203 -302,-359 -505,-468 -204,-108 -444,-163 -723,-163 -278,0 -519,55 -723,163 -203,109 -372,265 -505,468 -134,203 -234,451 -301,744 -67,292 -100,619 -100,981 0,368 33,697 100,986 67,290 167,538 301,744 133,206 302,363 505,472 204,109 445,163 723,163z"/>
 </g>
</svg>
