<?xml version="1.0" encoding="UTF-8"?>
<!DOCTYPE svg PUBLIC "-//W3C//DTD SVG 1.1//EN" "http://www.w3.org/Graphics/SVG/1.1/DTD/svg11.dtd">
<!-- Creator: CorelDRAW X7 -->
<svg xmlns="http://www.w3.org/2000/svg" xml:space="preserve" width="144px" height="144px" version="1.1" style="shape-rendering:geometricPrecision; text-rendering:geometricPrecision; image-rendering:optimizeQuality; fill-rule:evenodd; clip-rule:evenodd"
viewBox="0 0 14400 14400"
 xmlns:xlink="http://www.w3.org/1999/xlink">
 <defs>
  <style type="text/css">
   <![CDATA[
    .fil0 {fill:url(#id0)}
   ]]>
  </style>
  <linearGradient id="id0" gradientUnits="userSpaceOnUse" x1="2304.13" y1="2304.13" x2="12096" y2="12096">
   <stop offset="0" style="stop-opacity:1; stop-color:#3E24FF"/>
   <stop offset="1" style="stop-opacity:1; stop-color:#18BDCF"/>
  </linearGradient>
 </defs>
 <g id="Layer_x0020_1">
  <metadata id="CorelCorpID_0Corel-Layer"/>
  <path class="fil0" d="M5665 8375c-5,4 -10,8 -16,11m-1744 -4998c1895,-1642 4723,-1635 6611,18l510 -510c-2171,-1934 -5453,-1940 -7631,-19l510 511zm3719 3079l1010 583c25,14 47,35 63,62 46,80 19,182 -61,229l-1012 584 0 0 -1 0 -998 576c-27,20 -61,31 -97,31 -92,0 -167,-75 -167,-167l0 -1169 0 -1169 0 0c0,-28 8,-57 23,-83 46,-80 147,-107 227,-61l1004 579c3,2 6,3 9,5zm-4740 -4100c2461,-2201 6199,-2195 8653,19l510 -510c-2736,-2495 -6930,-2501 -9673,-19l510 510zm9168 538c2176,2454 2170,6164 -19,8611l510 510c2470,-2729 2476,-6894 19,-9631l-510 510zm-536 9128c-2447,2189 -6157,2195 -8611,19l-510 510c2737,2457 6902,2451 9631,-19l-510 -510zm-9130 -496c-2214,-2454 -2220,-6192 -19,-8653l-510 -510c-2482,2743 -2476,6937 19,9673l510 -510zm6837 -6384l0 0c528,522 855,1246 855,2047 0,1590 -1289,2878 -2878,2878 -1589,0 -2878,-1288 -2878,-2878 0,-801 328,-1525 856,-2047 66,-65 107,-156 107,-256 0,-199 -162,-360 -360,-360 -99,0 -189,40 -254,104l0 0c-660,652 -1069,1558 -1069,2559 0,1001 409,1907 1069,2559l0 1c66,65 107,156 107,256 0,199 -161,360 -360,360 -98,0 -188,-40 -253,-104l0 0c-792,-783 -1283,-1870 -1283,-3072 0,-1202 491,-2289 1283,-3072l0 0c195,-192 463,-311 759,-311 597,0 1081,483 1081,1080 0,301 -123,572 -321,768l0 1c-396,391 -641,934 -641,1534 0,1192 966,2158 2157,2158 1192,0 2158,-966 2158,-2158 0,-600 -246,-1143 -642,-1535l1 0c-198,-196 -321,-468 -321,-768 0,-597 483,-1081 1080,-1081 296,0 564,119 759,312 793,783 1284,1870 1284,3072 0,1201 -491,2288 -1282,3070l-2 2c-65,64 -154,104 -253,104 -199,0 -360,-161 -360,-360 0,-100 41,-191 107,-256l0 -1c660,-652 1069,-1558 1069,-2559 0,-1001 -409,-1907 -1069,-2559l0 0c-65,-65 -155,-104 -253,-104 -199,0 -360,161 -360,360 0,100 41,191 107,256l0 0zm-6346 -1758c-1921,2178 -1915,5460 19,7631l510 -510c-1653,-1888 -1660,-4716 -18,-6611l-511 -510zm8154 531c1617,1888 1611,4688 -19,6569l511 510c1908,-2164 1915,-5418 18,-7589l-510 510zm-536 7086c-1881,1630 -4681,1636 -6569,19l-510 510c2171,1897 5425,1890 7589,-18l-510 -511z"/>
 </g>
</svg>
