<?xml version="1.0" encoding="UTF-8"?>
<!DOCTYPE svg PUBLIC "-//W3C//DTD SVG 1.1//EN" "http://www.w3.org/Graphics/SVG/1.1/DTD/svg11.dtd">
<!-- Creator: CorelDRAW X7 -->
<svg xmlns="http://www.w3.org/2000/svg" xml:space="preserve" width="144px" height="144px" version="1.1" style="shape-rendering:geometricPrecision; text-rendering:geometricPrecision; image-rendering:optimizeQuality; fill-rule:evenodd; clip-rule:evenodd"
viewBox="0 0 14400 14400"
 xmlns:xlink="http://www.w3.org/1999/xlink">
 <defs>
  <style type="text/css">
   <![CDATA[
    .fil0 {fill:#E6E7E8}
    .fil1 {fill:url(#id0)}
   ]]>
  </style>
  <linearGradient id="id0" gradientUnits="userSpaceOnUse" x1="2747.76" y1="2755.44" x2="11652.5" y2="11644.7">
   <stop offset="0" style="stop-opacity:1; stop-color:#3E24FF"/>
   <stop offset="1" style="stop-opacity:1; stop-color:#18BDCF"/>
  </linearGradient>
 </defs>
 <g id="Layer_x0020_1">
  <metadata id="CorelCorpID_0Corel-Layer"/>
  <g id="_305161592">
   <circle class="fil0" cx="7200" cy="7200" r="7200"/>
   <path class="fil1" d="M5805 8267c-5,3 -10,7 -15,10m-1587 -4538c1724,-1490 4296,-1484 6013,17l464 -464c-1975,-1755 -4960,-1760 -6941,-16l464 463zm3383 2796l918 529c23,13 43,32 57,56 42,73 18,166 -55,208l-920 530 0 0 -1 0 -908 523c-25,18 -55,28 -88,28 -84,0 -152,-68 -152,-152l0 -1061 0 -1061 0 0c0,-25 7,-51 21,-75 41,-73 134,-97 207,-56l912 526c3,1 6,3 9,5zm-4311 -3723c2238,-1998 5638,-1992 7869,17l464 -463c-2488,-2264 -6302,-2270 -8797,-17l464 463zm8337 489c1979,2228 1974,5596 -17,7817l464 463c2246,-2478 2251,-6259 17,-8743l-464 463zm-487 8287c-2225,1987 -5599,1992 -7831,16l-464 464c2489,2230 6277,2225 8759,-17l-464 -463zm-8303 -451c-2013,-2227 -2019,-5621 -17,-7855l-464 -463c-2257,2490 -2251,6297 17,8781l464 -463zm6217 -5795l0 0c480,473 778,1131 778,1858 0,1443 -1172,2613 -2617,2613 -1445,0 -2617,-1170 -2617,-2613 0,-727 298,-1385 778,-1858 60,-60 97,-142 97,-233 0,-180 -146,-327 -327,-327 -90,0 -171,36 -231,95l0 0c-600,592 -972,1414 -972,2323 0,909 372,1731 972,2324l0 0c60,59 98,141 98,232 0,181 -147,327 -328,327 -89,0 -171,-36 -230,-94l0 0c-721,-711 -1167,-1698 -1167,-2789 0,-1091 446,-2078 1167,-2789l0 1c178,-175 421,-284 691,-284 542,0 982,440 982,981 0,273 -112,520 -292,698l0 0c-360,355 -583,848 -583,1393 0,1082 879,1959 1962,1959 1084,0 1962,-877 1962,-1959 0,-545 -223,-1038 -583,-1393l0 0c-180,-178 -292,-425 -292,-698 0,-542 440,-981 983,-981 269,0 513,108 690,283 721,711 1167,1698 1167,2789 0,1091 -446,2077 -1165,2787l-2 2c-59,58 -140,94 -230,94 -181,0 -327,-146 -327,-327 0,-91 37,-173 97,-232l0 0c600,-593 972,-1415 972,-2324 0,-909 -372,-1731 -972,-2323l0 0c-59,-59 -141,-95 -230,-95 -181,0 -328,146 -328,327 0,91 37,173 98,233l-1 0zm-5770 -1597c-1747,1978 -1741,4958 17,6929l464 -464c-1504,-1714 -1510,-4281 -17,-6001l-464 -464zm7415 483c1470,1714 1465,4256 -17,5963l464 464c1736,-1965 1742,-4920 17,-6891l-464 464zm-487 6433c-1711,1479 -4257,1484 -5974,17l-464 463c1974,1722 4934,1716 6902,-17l-464 -463z"/>
  </g>
 </g>
</svg>
