<?xml version="1.0" encoding="UTF-8"?>
<!DOCTYPE svg PUBLIC "-//W3C//DTD SVG 1.1//EN" "http://www.w3.org/Graphics/SVG/1.1/DTD/svg11.dtd">
<!-- Creator: CorelDRAW X7 -->
<svg xmlns="http://www.w3.org/2000/svg" xml:space="preserve" width="256px" height="256px" version="1.1" style="shape-rendering:geometricPrecision; text-rendering:geometricPrecision; image-rendering:optimizeQuality; fill-rule:evenodd; clip-rule:evenodd"
viewBox="0 0 25600 25600"
 xmlns:xlink="http://www.w3.org/1999/xlink">
 <defs>
  <style type="text/css">
   <![CDATA[
    .fil0 {fill:url(#id0)}
   ]]>
  </style>
  <linearGradient id="id0" gradientUnits="userSpaceOnUse" x1="4096.31" y1="4096.43" x2="21503.8" y2="21503.9">
   <stop offset="0" style="stop-opacity:1; stop-color:#3E24FF"/>
   <stop offset="1" style="stop-opacity:1; stop-color:#18BDCF"/>
  </linearGradient>
 </defs>
 <g id="Layer_x0020_1">
  <metadata id="CorelCorpID_0Corel-Layer"/>
  <path class="fil0" d="M10072 14889c-10,7 -19,13 -29,20m-3101 -8886c3369,-2918 8396,-2907 11753,32l907 -907c-3859,-3437 -9695,-3448 -13567,-33l907 908zm6612 5474l1796 1037c44,25 83,62 111,110 82,142 34,324 -108,406l-1799 1039 -1 -1 -1 1 -1774 1024c-49,35 -108,55 -172,55 -165,0 -298,-133 -298,-298l0 -2077 0 -2078 1 0c0,-50 13,-101 40,-147 81,-142 262,-191 404,-110l1784 1030c6,3 11,6 17,9zm-8426 -7289c4374,-3913 11020,-3902 15381,33l907 -907c-4864,-4434 -12319,-4445 -17195,-33l907 907zm16297 957c3869,4363 3858,10957 -33,15307l907 908c4390,-4853 4401,-12257 33,-17122l-907 907zm-953 16227c-4350,3891 -10944,3902 -15307,33l-907 907c4865,4368 12269,4357 17122,-33l-908 -907zm-16231 -882c-3935,-4362 -3946,-11007 -33,-15382l-907 -907c-4412,4876 -4401,12331 33,17195l907 -906zm12155 -11349l0 0c938,928 1520,2215 1520,3639 0,2826 -2290,5116 -5116,5116 -2825,0 -5116,-2290 -5116,-5116 0,-1424 582,-2711 1520,-3639 118,-116 191,-277 191,-455 0,-354 -287,-640 -640,-640 -176,0 -335,70 -450,184l-1 0c-1173,1160 -1901,2770 -1901,4550 0,1780 728,3391 1901,4550l0 0c118,116 191,278 191,456 0,353 -287,640 -640,640 -176,0 -335,-71 -451,-185l0 0c-1408,-1392 -2281,-3324 -2281,-5461 0,-2137 873,-4069 2281,-5461l1 1c347,-343 823,-555 1350,-555 1060,0 1920,860 1920,1921 0,534 -219,1017 -571,1366l1 0c-704,695 -1140,1661 -1140,2728 0,2118 1717,3836 3835,3836 2118,0 3836,-1718 3836,-3836 0,-1067 -437,-2033 -1140,-2728l0 -1c-352,-348 -570,-831 -570,-1366 0,-1061 859,-1920 1920,-1920 526,0 1003,211 1350,554 1408,1392 2281,3324 2281,5461 0,2135 -871,4067 -2279,5458l-2 3c-116,114 -275,185 -450,185 -354,0 -640,-287 -640,-640 0,-178 72,-340 190,-456l0 0c1173,-1160 1901,-2770 1901,-4550 0,-1780 -728,-3390 -1901,-4550l0 0c-116,-114 -275,-185 -450,-185 -354,0 -640,287 -640,641 0,178 72,339 190,455l0 0zm-11281 -3126c-3415,3872 -3404,9708 33,13567l907 -907c-2939,-3357 -2950,-8384 -32,-11753l-908 -907zm14495 945c2875,3356 2864,8334 -32,11678l907 907c3393,-3847 3404,-9633 32,-13493l-907 908zm-952 12598c-3344,2896 -8322,2907 -11678,32l-908 907c3860,3372 9646,3361 13493,-32l-907 -907z"/>
 </g>
</svg>
