<?xml version="1.0" encoding="UTF-8"?>
<!DOCTYPE svg PUBLIC "-//W3C//DTD SVG 1.1//EN" "http://www.w3.org/Graphics/SVG/1.1/DTD/svg11.dtd">
<!-- Creator: CorelDRAW X7 -->
<svg xmlns="http://www.w3.org/2000/svg" xml:space="preserve" width="256px" height="256px" version="1.1" style="shape-rendering:geometricPrecision; text-rendering:geometricPrecision; image-rendering:optimizeQuality; fill-rule:evenodd; clip-rule:evenodd"
viewBox="0 0 25600 25600"
 xmlns:xlink="http://www.w3.org/1999/xlink">
 <defs>
  <style type="text/css">
   <![CDATA[
    .fil0 {fill:#E6E7E8}
    .fil1 {fill:url(#id0)}
   ]]>
  </style>
  <linearGradient id="id0" gradientUnits="userSpaceOnUse" x1="4884.7" y1="4898.64" x2="20715.3" y2="20701.7">
   <stop offset="0" style="stop-opacity:1; stop-color:#3E24FF"/>
   <stop offset="1" style="stop-opacity:1; stop-color:#18BDCF"/>
  </linearGradient>
 </defs>
 <g id="Layer_x0020_1">
  <metadata id="CorelCorpID_0Corel-Layer"/>
  <g id="_305151272">
   <circle class="fil0" cx="12800" cy="12800" r="12800"/>
   <path class="fil1" d="M10319 14697c-9,6 -18,11 -26,17m-2820 -8067c3064,-2649 7635,-2638 10688,30l825 -824c-3510,-3120 -8817,-3130 -12338,-29l825 823zm6012 4970l1634 941c40,23 76,57 101,100 75,129 31,294 -98,369l-1637 943 0 -1 -1 1 -1613 930c-45,31 -99,50 -157,50 -150,0 -271,-121 -271,-271l0 -1886 0 -1886 1 0c0,-45 12,-91 36,-134 74,-129 239,-173 368,-99l1622 935c5,2 10,5 15,8zm-7662 -6617c3978,-3553 10021,-3543 13988,30l824 -823c-4423,-4026 -11202,-4036 -15637,-30l825 823zm14820 869c3519,3960 3509,9947 -30,13896l825 824c3993,-4405 4002,-11127 30,-15544l-825 824zm-866 14731c-3956,3533 -9953,3543 -13920,30l-825 823c4424,3965 11158,3956 15570,-29l-825 -824zm-14761 -801c-3578,-3960 -3588,-9993 -29,-13964l-825 -824c-4013,4428 -4002,11196 30,15611l824 -823zm11054 -10303l0 1c853,841 1382,2011 1382,3303 0,2565 -2083,4645 -4652,4645 -2569,0 -4652,-2080 -4652,-4645 0,-1292 529,-2462 1382,-3304 107,-105 173,-251 173,-413 0,-321 -260,-581 -582,-581 -159,0 -304,64 -409,168l0 0c-1067,1052 -1729,2514 -1729,4130 0,1616 662,3078 1729,4131l0 0c106,105 173,252 173,414 0,320 -261,580 -582,580 -160,0 -305,-64 -410,-167l0 0c-1281,-1264 -2075,-3018 -2075,-4958 0,-1940 794,-3694 2075,-4957l1 0c315,-311 748,-503 1227,-503 964,0 1746,780 1746,1743 0,485 -198,924 -519,1240l1 1c-640,631 -1037,1507 -1037,2476 0,1923 1562,3482 3488,3482 1926,0 3488,-1559 3488,-3482 0,-969 -397,-1845 -1037,-2477l1 0c-320,-316 -519,-755 -519,-1240 0,-963 782,-1744 1746,-1744 479,0 912,192 1228,504 1281,1263 2075,3017 2075,4957 0,1939 -793,3692 -2073,4955l-2 3c-105,103 -250,167 -409,167 -322,0 -582,-260 -582,-580 0,-162 66,-309 173,-414l-1 0c1068,-1053 1729,-2515 1729,-4131 0,-1616 -661,-3078 -1729,-4131l0 0c-105,-103 -249,-167 -409,-167 -321,0 -582,260 -582,581 0,162 66,308 173,413l0 0zm-10258 -2838c-3106,3516 -3096,8813 29,12317l826 -824c-2674,-3047 -2684,-7611 -30,-10669l-825 -824zm13181 858c2614,3047 2604,7566 -30,10602l825 824c3086,-3493 3096,-8746 30,-12250l-825 824zm-866 11437c-3041,2629 -7568,2639 -10620,29l-825 824c3510,3061 8771,3051 12270,-30l-825 -823z"/>
  </g>
 </g>
</svg>
