<?xml version="1.0" encoding="UTF-8"?>
<!DOCTYPE svg PUBLIC "-//W3C//DTD SVG 1.1//EN" "http://www.w3.org/Graphics/SVG/1.1/DTD/svg11.dtd">
<!-- Creator: CorelDRAW X7 -->
<svg xmlns="http://www.w3.org/2000/svg" xml:space="preserve" width="48px" height="48px" version="1.1" style="shape-rendering:geometricPrecision; text-rendering:geometricPrecision; image-rendering:optimizeQuality; fill-rule:evenodd; clip-rule:evenodd"
viewBox="0 0 4800 4800"
 xmlns:xlink="http://www.w3.org/1999/xlink">
 <defs>
  <style type="text/css">
   <![CDATA[
    .fil0 {fill:url(#id0)}
   ]]>
  </style>
  <linearGradient id="id0" gradientUnits="userSpaceOnUse" x1="768.109" y1="767.991" x2="4032.13" y2="4032.01">
   <stop offset="0" style="stop-opacity:1; stop-color:#3E24FF"/>
   <stop offset="1" style="stop-opacity:1; stop-color:#18BDCF"/>
  </linearGradient>
 </defs>
 <g id="Layer_x0020_1">
  <metadata id="CorelCorpID_0Corel-Layer"/>
  <path class="fil0" d="M1889 2792c-2,1 -4,2 -6,3m-581 -1666c631,-547 1574,-545 2203,6l171 -170c-724,-644 -1818,-646 -2544,-6l170 170zm1239 1027l337 194c9,5 16,12 21,21 16,26 6,60 -20,76l-338 195 0 0 0 0 -333 192c-9,6 -20,10 -32,10 -31,0 -56,-25 -56,-56l0 -389 0 -390 1 0c0,-9 2,-19 7,-28 15,-26 49,-35 76,-20l334 193c1,1 2,1 3,2zm-1580 -1367c821,-734 2067,-732 2885,6l170 -170c-912,-831 -2310,-833 -3225,-6l170 170zm3056 179c726,818 724,2055 -6,2871l170 170c823,-910 825,-2298 6,-3211l-170 170zm-178 3043c-816,730 -2052,732 -2871,6l-170 170c913,819 2301,817 3211,-6l-170 -170zm-3044 -165c-738,-818 -740,-2064 -6,-2885l-170 -170c-827,915 -825,2313 6,3225l170 -170zm2279 -2128l0 0c176,174 285,415 285,682 0,530 -429,959 -959,959 -530,0 -959,-429 -959,-959 0,-267 109,-508 285,-682 22,-22 36,-52 36,-86 0,-66 -54,-120 -120,-120 -33,0 -63,13 -85,35l0 0c-220,217 -356,519 -356,853 0,334 136,636 356,853l0 0c22,22 36,52 36,86 0,66 -54,120 -120,120 -33,0 -63,-14 -85,-35l0 0c-264,-261 -427,-623 -427,-1024 0,-401 163,-763 427,-1024l0 0c66,-64 155,-104 254,-104 198,0 360,161 360,360 0,101 -41,191 -107,256l0 1c-132,130 -214,311 -214,511 0,397 322,719 719,719 397,0 719,-322 719,-719 0,-200 -82,-381 -213,-512l0 0c-66,-65 -107,-156 -107,-256 0,-199 161,-360 360,-360 98,0 188,40 253,104 264,261 428,623 428,1024 0,400 -164,763 -428,1023l0 1c-22,21 -52,35 -84,35 -67,0 -121,-54 -121,-120 0,-34 14,-64 36,-86l0 0c220,-217 357,-519 357,-853 0,-334 -137,-636 -357,-853l0 0c-22,-22 -51,-35 -84,-35 -67,0 -120,54 -120,120 0,34 13,64 35,86l0 0zm-2115 -587c-640,726 -638,1821 6,2545l170 -171c-551,-629 -553,-1572 -6,-2203l-170 -171zm2718 178c539,629 537,1562 -6,2189l170 171c636,-722 638,-1807 6,-2530l-170 170zm-179 2362c-626,543 -1560,545 -2189,6l-170 170c723,632 1808,630 2530,-6l-171 -170z"/>
 </g>
</svg>
