<?xml version="1.0" encoding="UTF-8"?>
<!DOCTYPE svg PUBLIC "-//W3C//DTD SVG 1.1//EN" "http://www.w3.org/Graphics/SVG/1.1/DTD/svg11.dtd">
<!-- Creator: CorelDRAW X7 -->
<svg xmlns="http://www.w3.org/2000/svg" xml:space="preserve" width="48px" height="48px" version="1.1" style="shape-rendering:geometricPrecision; text-rendering:geometricPrecision; image-rendering:optimizeQuality; fill-rule:evenodd; clip-rule:evenodd"
viewBox="0 0 4800 4800"
 xmlns:xlink="http://www.w3.org/1999/xlink">
 <defs>
  <style type="text/css">
   <![CDATA[
    .fil0 {fill:#E6E7E8}
    .fil1 {fill:url(#id0)}
   ]]>
  </style>
  <linearGradient id="id0" gradientUnits="userSpaceOnUse" x1="915.99" y1="918.47" x2="3884.25" y2="3881.65">
   <stop offset="0" style="stop-opacity:1; stop-color:#3E24FF"/>
   <stop offset="1" style="stop-opacity:1; stop-color:#18BDCF"/>
  </linearGradient>
 </defs>
 <g id="Layer_x0020_1">
  <metadata id="CorelCorpID_0Corel-Layer"/>
  <g id="_478401992">
   <circle class="fil0" cx="2400" cy="2400" r="2400"/>
   <path class="fil1" d="M1935 2756c-2,1 -3,2 -5,3m-529 -1513c575,-496 1432,-494 2004,6l155 -155c-658,-585 -1653,-587 -2314,-5l155 154zm1128 932l306 177c7,4 14,10 19,18 14,25 6,55 -19,70l-306 176 0 0 -1 0 -302 175c-8,6 -19,9 -30,9 -28,0 -50,-23 -50,-51l0 -353 0 -354 0 0c0,-8 2,-17 7,-25 13,-24 44,-32 69,-19l304 176c1,0 2,1 3,1zm-1437 -1241c746,-666 1879,-664 2623,6l154 -154c-829,-755 -2100,-757 -2932,-6l155 154zm2779 163c660,743 658,1866 -6,2606l155 155c748,-826 750,-2087 6,-2915l-155 154zm-163 2763c-741,662 -1866,664 -2610,5l-154 155c829,743 2092,741 2919,-6l-155 -154zm-2767 -151c-671,-742 -673,-1873 -6,-2618l-155 -154c-752,830 -750,2099 6,2927l155 -155zm2072 -1931l0 0c160,157 260,377 260,619 0,481 -391,871 -873,871 -482,0 -872,-390 -872,-871 0,-242 99,-462 259,-619 20,-20 32,-48 32,-78 0,-60 -48,-109 -109,-109 -30,0 -57,12 -76,32l0 0c-201,197 -325,471 -325,774 0,303 124,577 325,775l0 0c20,19 32,47 32,77 0,60 -49,109 -109,109 -30,0 -57,-12 -77,-31l0 0c-240,-237 -389,-566 -389,-930 0,-364 149,-693 389,-930l0 1c59,-59 141,-95 230,-95 181,0 328,147 328,327 0,91 -38,173 -98,233l1 0c-120,118 -195,282 -195,464 0,361 293,653 654,653 361,0 654,-292 654,-653 0,-182 -74,-346 -194,-464l0 -1c-60,-59 -97,-141 -97,-232 0,-181 146,-327 327,-327 90,0 171,36 230,94 240,237 389,566 389,930 0,364 -148,692 -388,929l-1 1c-19,19 -47,31 -77,31 -60,0 -109,-49 -109,-109 0,-30 13,-58 33,-77l0 0c200,-198 324,-472 324,-775 0,-303 -124,-577 -324,-774l0 0c-20,-20 -47,-32 -77,-32 -60,0 -109,49 -109,109 0,30 12,58 32,77l0 1zm-1923 -533c-583,660 -581,1653 5,2310l155 -155c-501,-571 -503,-1427 -6,-2000l-154 -155zm2471 161c490,572 489,1419 -5,1988l154 155c579,-655 581,-1640 6,-2297l-155 154zm-162 2145c-570,493 -1419,495 -1991,5l-155 155c658,574 1645,572 2301,-6l-155 -154z"/>
  </g>
 </g>
</svg>
