<?xml version="1.0" encoding="UTF-8"?>
<!DOCTYPE svg PUBLIC "-//W3C//DTD SVG 1.1//EN" "http://www.w3.org/Graphics/SVG/1.1/DTD/svg11.dtd">
<!-- Creator: CorelDRAW X7 -->
<svg xmlns="http://www.w3.org/2000/svg" xml:space="preserve" width="512px" height="512px" version="1.1" style="shape-rendering:geometricPrecision; text-rendering:geometricPrecision; image-rendering:optimizeQuality; fill-rule:evenodd; clip-rule:evenodd"
viewBox="0 0 51200 51200"
 xmlns:xlink="http://www.w3.org/1999/xlink">
 <defs>
  <style type="text/css">
   <![CDATA[
    .fil0 {fill:url(#id0)}
   ]]>
  </style>
  <linearGradient id="id0" gradientUnits="userSpaceOnUse" x1="8192.51" y1="8192.86" x2="43007.4" y2="43007.7">
   <stop offset="0" style="stop-opacity:1; stop-color:#3E24FF"/>
   <stop offset="1" style="stop-opacity:1; stop-color:#18BDCF"/>
  </linearGradient>
 </defs>
 <g id="Layer_x0020_1">
  <metadata id="CorelCorpID_0Corel-Layer"/>
  <path class="fil0" d="M20144 29779c-20,13 -39,25 -58,39m-6202 -17773c6738,-5836 16792,-5813 23506,66l1814 -1815c-7719,-6874 -19390,-6895 -27134,-65l1814 1814zm13223 10949l3592 2073c90,51 168,125 223,221 164,283 68,647 -216,812l-3599 2077 0 -1 -2 1 -3549 2049c-97,69 -216,110 -345,110 -329,0 -595,-267 -595,-596l0 -4155 0 -4155 2 0c0,-100 26,-202 79,-295 163,-284 526,-382 809,-219l3568 2060c11,6 22,12 33,18zm-16852 -14578c8750,-7827 22040,-7805 30764,66l1813 -1813c-9727,-8868 -24638,-8891 -34391,-67l1814 1814zm32594 1914c7739,8725 7717,21915 -65,30615l1814 1814c8780,-9704 8801,-24513 66,-34244l-1815 1815zm-1905 32454c-8699,7782 -21889,7804 -30614,66l-1815 1814c9730,8735 24539,8714 34244,-66l-1815 -1814zm-32462 -1765c-7871,-8724 -7892,-22014 -66,-30763l-1814 -1815c-8824,9754 -8801,24664 67,34391l1813 -1813zm24309 -22697l0 0c1877,1855 3041,4431 3041,7278 0,5651 -4581,10232 -10232,10232 -5651,0 -10232,-4581 -10232,-10232 0,-2847 1164,-5423 3041,-7278 235,-232 380,-554 380,-910 0,-708 -573,-1281 -1279,-1281 -351,0 -670,142 -901,370l0 0c-2347,2319 -3802,5539 -3802,9099 0,3561 1455,6781 3802,9100l0 1c235,232 380,554 380,911 0,706 -573,1279 -1279,1279 -352,0 -670,-141 -901,-369l0 0c-2817,-2783 -4563,-6648 -4563,-10922 0,-4273 1746,-8138 4563,-10921l0 0c694,-685 1647,-1109 2700,-1109 2121,0 3840,1720 3840,3842 0,1068 -436,2035 -1141,2731l1 1c-1407,1391 -2280,3322 -2280,5456 0,4237 3435,7671 7671,7671 4236,0 7671,-3434 7671,-7671 0,-2134 -873,-4065 -2280,-5456l2 -2c-705,-696 -1142,-1662 -1142,-2731 0,-2122 1720,-3841 3840,-3841 1053,0 2006,423 2700,1108 2817,2784 4564,6649 4564,10922 0,4271 -1744,8134 -4558,10917l-6 5c-231,228 -549,369 -899,369 -708,0 -1281,-573 -1281,-1279 0,-357 146,-679 381,-911l-1 -1c2347,-2319 3802,-5539 3802,-9100 0,-3560 -1455,-6781 -3802,-9100l0 0c-231,-228 -549,-370 -900,-370 -707,0 -1280,574 -1280,1281 0,356 146,678 381,910l-1 1zm-22560 -6252c-6831,7744 -6809,19415 65,27134l1815 -1814c-5879,-6713 -5902,-16768 -66,-23506l-1814 -1814zm28989 1889c5749,6712 5728,16669 -65,23357l1814 1814c6787,-7695 6809,-19266 65,-26985l-1814 1814zm-1904 25196c-6688,5792 -16644,5814 -23357,65l-1815 1815c7720,6743 19291,6721 26986,-66l-1814 -1814z"/>
 </g>
</svg>
