<?xml version="1.0" encoding="UTF-8"?>
<!DOCTYPE svg PUBLIC "-//W3C//DTD SVG 1.1//EN" "http://www.w3.org/Graphics/SVG/1.1/DTD/svg11.dtd">
<!-- Creator: CorelDRAW X7 -->
<svg xmlns="http://www.w3.org/2000/svg" xml:space="preserve" width="512px" height="92px" version="1.1" style="shape-rendering:geometricPrecision; text-rendering:geometricPrecision; image-rendering:optimizeQuality; fill-rule:evenodd; clip-rule:evenodd"
viewBox="0 0 51200 9200"
 xmlns:xlink="http://www.w3.org/1999/xlink">
 <defs>
  <style type="text/css">
   <![CDATA[
    .fil0 {fill:url(#id0)}
    .fil1 {fill:url(#id1);fill-rule:nonzero}
   ]]>
  </style>
  <linearGradient id="id0" gradientUnits="userSpaceOnUse" x1="1464.34" y1="1488.08" x2="7688.17" y2="7711.91">
   <stop offset="0" style="stop-opacity:1; stop-color:#3E24FF"/>
   <stop offset="1" style="stop-opacity:1; stop-color:#18BDCF"/>
  </linearGradient>
  <linearGradient id="id1" gradientUnits="userSpaceOnUse" x1="10799.1" y1="5070.84" x2="51200.1" y2="5070.84">
   <stop offset="0" style="stop-opacity:1; stop-color:#432AFC"/>
   <stop offset="1" style="stop-opacity:1; stop-color:#27A9C7"/>
  </linearGradient>
 </defs>
 <g id="Layer_x0020_1">
  <metadata id="CorelCorpID_0Corel-Layer"/>
  <path class="fil0" d="M3601 5347c-4,2 -7,5 -10,7m-1109 -3177c1204,-1043 3002,-1039 4202,11l324 -324c-1380,-1229 -3466,-1233 -4850,-12l324 325zm2364 1957l642 371c16,9 30,22 40,39 29,51 12,116 -39,145l-643 372 0 -1 -1 1 -634 366c-18,12 -39,20 -62,20 -59,0 -106,-48 -106,-107l0 -743 0 -742 0 0c0,-18 5,-37 14,-53 30,-51 94,-69 145,-39l638 368c2,1 4,2 6,3zm-3013 -2606c1564,-1399 3940,-1395 5500,12l324 -324c-1739,-1586 -4405,-1590 -6148,-12l324 324zm5827 342c1383,1560 1379,3918 -12,5473l325 325c1569,-1735 1573,-4383 11,-6122l-324 324zm-341 5802c-1555,1391 -3913,1395 -5473,12l-324 324c1740,1562 4387,1558 6122,-12l-325 -324zm-5803 -316c-1407,-1559 -1411,-3935 -12,-5499l-324 -325c-1577,1744 -1573,4410 12,6148l324 -324zm4346 -4057l0 0c335,331 543,792 543,1301 0,1010 -818,1829 -1829,1829 -1010,0 -1829,-819 -1829,-1829 0,-509 208,-970 544,-1301 42,-42 68,-99 68,-163 0,-126 -103,-229 -229,-229 -63,0 -120,25 -161,66l0 0c-420,415 -680,991 -680,1627 0,637 260,1212 680,1627l0 0c42,41 68,99 68,163 0,126 -103,229 -229,229 -63,0 -119,-26 -161,-67l0 1c-504,-498 -816,-1189 -816,-1953 0,-764 312,-1455 816,-1952l0 0c124,-123 295,-199 483,-199 379,0 686,308 686,687 0,191 -78,364 -204,488l1 1c-252,248 -408,593 -408,975 0,757 614,1371 1371,1371 758,0 1372,-614 1372,-1371 0,-382 -156,-727 -408,-975l0 -1c-126,-124 -204,-297 -204,-488 0,-379 308,-687 687,-687 188,0 358,76 482,198 504,498 816,1189 816,1953 0,763 -311,1454 -815,1951l-1 2c-41,40 -98,66 -160,66 -127,0 -229,-103 -229,-229 0,-64 26,-122 68,-163l0 0c419,-415 679,-990 679,-1627 0,-636 -260,-1212 -679,-1627l0 0c-42,-41 -99,-66 -161,-66 -127,0 -229,103 -229,229 0,64 26,121 68,163l0 0zm-4033 -1118c-1221,1385 -1217,3471 11,4851l325 -324c-1051,-1201 -1055,-2998 -12,-4202l-324 -325zm5182 338c1028,1200 1024,2980 -12,4175l325 325c1213,-1376 1217,-3445 11,-4825l-324 325zm-340 4504c-1196,1036 -2976,1039 -4176,12l-324 324c1380,1206 3448,1202 4824,-11l-324 -325z"/>
  <path class="fil1" d="M12070 6141c-218,0 -406,-39 -565,-115 -158,-77 -290,-184 -395,-322 -104,-138 -182,-302 -234,-491 -51,-190 -77,-397 -77,-623 0,-226 26,-433 77,-623 52,-189 130,-353 234,-491 105,-138 237,-246 395,-324 159,-78 347,-117 565,-117 217,0 405,39 564,117 159,78 290,186 395,324 104,138 182,302 232,491 50,190 75,397 75,623 0,226 -25,433 -75,623 -50,189 -128,353 -232,491 -105,138 -236,245 -395,322 -159,76 -347,115 -564,115zm37993 -2195c31,-5 60,-9 88,-12 28,-3 57,-4 88,-4 30,0 61,1 92,4 30,3 58,7 83,12 9,42 17,97 25,166 9,68 13,126 13,173 58,-95 136,-177 232,-247 96,-69 219,-104 370,-104 22,0 45,1 69,2 23,1 44,3 60,6 6,25 10,52 13,80 3,28 4,57 4,88 0,33 -2,68 -6,104 -4,36 -9,71 -15,104 -22,-5 -45,-8 -69,-8 -24,0 -42,0 -56,0 -75,0 -147,11 -215,32 -69,20 -130,57 -184,110 -55,53 -98,126 -130,218 -32,92 -48,210 -48,355l0 1066c-31,5 -65,9 -102,12 -38,3 -72,4 -103,4 -30,0 -64,-1 -102,-4 -38,-3 -73,-7 -107,-12l0 -2145zm-2014 1175c5,234 66,405 181,514 116,109 287,163 512,163 198,0 386,-35 565,-104 22,41 40,92 54,152 14,60 22,119 25,178 -92,39 -193,68 -303,88 -110,19 -232,29 -366,29 -195,0 -362,-27 -501,-82 -139,-54 -254,-131 -345,-230 -91,-99 -157,-216 -198,-351 -42,-135 -63,-283 -63,-445 0,-159 20,-307 61,-445 40,-138 102,-258 185,-359 84,-102 189,-183 316,-243 127,-60 276,-90 449,-90 148,0 277,25 389,76 111,50 205,119 280,206 75,88 132,193 171,314 39,121 59,253 59,395 0,39 -2,80 -4,123 -3,43 -6,80 -9,111l-1458 0zm1061 -309c0,-78 -10,-153 -31,-224 -21,-71 -52,-133 -92,-186 -40,-53 -92,-95 -155,-127 -62,-32 -137,-49 -223,-49 -170,0 -300,52 -391,155 -91,103 -146,247 -165,431l1057 0zm-2787 1283c-23,0 -46,0 -69,2 -24,1 -47,2 -69,2 -28,0 -57,-1 -88,-2 -31,-2 -56,-4 -75,-6l-711 -2145c36,-5 74,-9 113,-10 39,-1 75,-2 109,-2 36,0 76,1 121,2 44,1 82,5 113,10l593 1994 614 -1994c59,-8 127,-12 205,-12 31,0 66,1 105,2 39,1 78,5 117,10l-832 2579c-39,115 -79,211 -121,289 -42,78 -89,140 -142,188 -53,47 -112,81 -178,100 -65,20 -141,29 -228,29 -64,0 -127,-5 -190,-14 -62,-10 -118,-22 -165,-36 0,-64 6,-121 17,-171 11,-50 28,-100 50,-151 25,9 59,18 102,28 44,9 90,14 140,14 37,0 71,-3 103,-10 32,-7 62,-21 90,-42 27,-21 53,-51 77,-90 24,-39 47,-92 69,-159l130 -405zm-1760 -1012c-42,-5 -95,-11 -159,-16 -64,-6 -118,-9 -163,-9 -173,0 -304,32 -395,96 -91,64 -136,162 -136,293 0,84 16,149 46,196 31,48 69,84 115,109 46,25 97,40 153,46 55,6 108,8 159,8 64,0 130,-3 198,-10 68,-7 129,-17 182,-31l0 -682zm0 -405c0,-165 -42,-279 -126,-343 -83,-64 -204,-96 -363,-96 -98,0 -189,8 -274,23 -85,15 -168,36 -249,61 -53,-92 -79,-202 -79,-331 95,-30 199,-54 313,-71 115,-16 225,-25 331,-25 278,0 490,64 635,191 145,126 217,329 217,608l0 1341c-97,23 -216,46 -355,69 -139,24 -281,36 -426,36 -137,0 -260,-13 -370,-38 -110,-25 -204,-65 -280,-121 -77,-56 -136,-127 -178,-213 -42,-87 -62,-191 -62,-314 0,-119 24,-225 73,-315 48,-91 115,-166 198,-226 84,-60 180,-104 288,-134 109,-29 223,-44 343,-44 89,0 163,3 220,7 57,4 105,9 144,14l0 -79zm-2387 -1651c31,-6 65,-10 103,-13 37,-2 72,-4 102,-4 31,0 65,2 103,4 37,3 71,7 102,13l0 2416c0,78 7,139 21,184 14,44 33,78 56,102 24,24 52,39 84,46 32,7 66,11 102,11 25,0 54,-2 86,-5 32,-2 59,-7 81,-12 26,97 38,203 38,317 -39,14 -86,23 -142,28 -56,4 -107,6 -155,6 -80,0 -156,-10 -225,-29 -70,-20 -131,-52 -184,-97 -53,-44 -95,-104 -126,-179 -30,-75 -46,-169 -46,-280l0 -2508zm-2323 54c41,-5 91,-11 148,-16 57,-6 117,-11 180,-15 62,-4 125,-8 188,-11 62,-2 123,-4 181,-4 154,0 299,16 437,46 138,31 259,84 364,159 104,75 187,175 248,299 62,124 93,279 93,466 0,195 -33,357 -99,487 -65,129 -152,233 -259,311 -107,78 -229,133 -366,165 -136,32 -275,49 -418,49 -52,0 -99,-1 -140,-3 -40,-1 -84,-4 -131,-10l0 1087c-67,8 -138,12 -213,12 -34,0 -69,-1 -107,-2 -38,-1 -73,-5 -106,-10l0 -3010zm426 1551c44,5 83,10 117,12 33,3 82,5 146,5 87,0 172,-9 257,-28 85,-18 161,-50 228,-98 67,-47 120,-112 161,-194 40,-82 60,-189 60,-320 0,-114 -17,-210 -52,-288 -35,-78 -83,-141 -144,-188 -61,-48 -135,-81 -222,-101 -86,-19 -179,-29 -280,-29 -103,0 -193,4 -271,13l0 1216zm-2479 451c-41,-5 -94,-11 -159,-16 -64,-6 -118,-9 -162,-9 -173,0 -305,32 -395,96 -91,64 -136,162 -136,293 0,84 15,149 46,196 30,48 69,84 115,109 46,25 96,40 152,46 56,6 109,8 159,8 64,0 130,-3 198,-10 69,-7 129,-17 182,-31l0 -682zm0 -405c0,-165 -41,-279 -125,-343 -84,-64 -205,-96 -364,-96 -97,0 -188,8 -273,23 -85,15 -168,36 -249,61 -53,-92 -80,-202 -80,-331 95,-30 200,-54 314,-71 114,-16 224,-25 330,-25 279,0 490,64 635,191 145,126 218,329 218,608l0 1341c-98,23 -216,46 -356,69 -139,24 -281,36 -426,36 -136,0 -260,-13 -370,-38 -110,-25 -203,-65 -280,-121 -76,-56 -136,-127 -177,-213 -42,-87 -63,-191 -63,-314 0,-119 24,-225 73,-315 49,-91 115,-166 199,-226 83,-60 179,-104 288,-134 109,-29 223,-44 343,-44 89,0 162,3 219,7 57,4 105,9 144,14l0 -79zm-2211 -405l-271 0c-6,-23 -10,-49 -13,-78 -3,-29 -4,-58 -4,-85 0,-28 1,-57 4,-86 3,-29 7,-55 13,-78l677 0 0 2145c-31,5 -65,9 -103,12 -37,3 -71,4 -102,4 -28,0 -61,-1 -98,-4 -38,-3 -72,-7 -103,-12l0 -1818zm-92 -799c-5,-33 -9,-69 -10,-108 -1,-40 -2,-74 -2,-105 0,-31 1,-65 2,-104 1,-39 5,-74 10,-105 37,-6 76,-10 117,-13 42,-2 78,-4 109,-4 31,0 67,2 109,4 41,3 79,7 112,13 6,31 10,66 11,105 1,39 2,73 2,104 0,31 -1,65 -2,105 -1,39 -5,75 -11,108 -33,6 -70,10 -110,13 -41,3 -76,4 -107,4 -33,0 -71,-1 -113,-4 -41,-3 -80,-7 -117,-13zm-1107 -447c30,-6 65,-10 104,-13 39,-2 73,-4 101,-4 30,0 64,2 102,4 38,3 72,7 102,13l0 3005c-106,31 -224,57 -355,77 -131,21 -277,32 -439,32 -150,0 -293,-19 -428,-57 -135,-37 -253,-99 -353,-186 -101,-86 -180,-197 -239,-334 -58,-137 -87,-305 -87,-506 0,-172 25,-330 77,-472 52,-142 125,-264 219,-366 95,-101 209,-180 341,-236 132,-56 279,-84 441,-84 72,0 146,6 219,17 74,11 139,25 195,42l0 -932zm0 1283c-56,-22 -116,-39 -180,-50 -64,-11 -134,-17 -209,-17 -114,0 -213,21 -297,63 -83,42 -152,99 -207,171 -54,73 -94,158 -121,257 -26,99 -40,207 -40,324 3,265 66,454 189,569 122,114 289,171 501,171 73,0 139,-3 201,-10 61,-7 115,-18 163,-32l0 -1446zm-3390 811c6,234 66,405 182,514 116,109 286,163 512,163 198,0 386,-35 564,-104 22,41 41,92 54,152 14,60 23,119 26,178 -92,39 -193,68 -303,88 -111,19 -232,29 -366,29 -195,0 -362,-27 -502,-82 -139,-54 -254,-131 -345,-230 -90,-99 -156,-216 -198,-351 -42,-135 -63,-283 -63,-445 0,-159 20,-307 61,-445 40,-138 102,-258 186,-359 83,-102 189,-183 315,-243 127,-60 277,-90 450,-90 147,0 277,25 388,76 112,50 205,119 280,206 76,88 133,193 172,314 39,121 58,253 58,395 0,39 -1,80 -4,123 -3,43 -5,80 -8,111l-1459 0zm1062 -309c0,-78 -11,-153 -32,-224 -20,-71 -51,-133 -92,-186 -40,-53 -92,-95 -154,-127 -63,-32 -137,-49 -224,-49 -170,0 -300,52 -391,155 -90,103 -145,247 -165,431l1058 0zm-4665 -1726c34,-6 72,-10 115,-13 43,-3 85,-4 124,-4 38,0 81,1 127,4 46,3 84,7 115,13l777 1880 782 -1880c28,-6 63,-10 104,-13 42,-3 83,-4 122,-4 36,0 76,1 121,4 44,3 82,7 113,13l142 3005c-34,5 -68,9 -103,12 -34,3 -70,4 -106,4 -36,0 -72,-1 -107,-4 -35,-3 -67,-7 -98,-12l-96 -2337 -736 1714c-56,8 -113,12 -171,12 -53,0 -106,-4 -159,-12l-710 -1726 -97 2349c-30,5 -62,9 -96,12 -33,3 -65,4 -96,4 -36,0 -71,-1 -104,-4 -34,-3 -66,-7 -97,-12l134 -3005zm-3386 0c31,-6 63,-10 98,-13 35,-3 72,-4 111,-4 36,0 72,1 109,4 36,3 71,7 104,13l0 2628 1179 0c5,31 9,63 10,97 2,33 2,64 2,92 0,66 -4,129 -12,188l-1601 0 0 -3005zm-1108 1450c34,-6 68,-10 105,-13 36,-3 72,-4 108,-4 37,0 73,1 109,4 36,3 70,7 100,13l0 1467c-58,25 -122,47 -192,65 -70,18 -142,32 -217,41 -75,10 -151,18 -226,23 -75,6 -146,9 -213,9 -223,0 -424,-35 -602,-105 -178,-69 -329,-170 -451,-303 -123,-132 -217,-293 -282,-483 -66,-189 -99,-403 -99,-643 0,-240 34,-456 101,-650 67,-194 162,-359 286,-495 124,-137 272,-242 443,-316 171,-74 362,-111 570,-111 159,0 297,11 414,32 117,21 223,49 318,85 -6,65 -18,124 -36,178 -18,54 -39,112 -64,174 -78,-26 -163,-48 -253,-67 -91,-20 -204,-30 -341,-30 -148,0 -282,27 -403,80 -121,53 -224,130 -310,232 -85,101 -151,227 -198,376 -47,149 -71,320 -71,512 0,198 24,368 73,512 49,143 118,263 207,359 89,96 194,168 315,214 122,45 256,68 404,68 89,0 167,-4 234,-14 67,-10 124,-22 171,-36l0 -1174zm-4188 -590c31,-5 61,-9 90,-12 29,-3 59,-4 90,-4 31,0 59,1 86,4 26,3 55,7 85,12 9,42 17,99 25,170 9,71 13,130 13,177 28,-47 63,-94 107,-142 43,-47 92,-90 148,-127 56,-38 120,-68 192,-92 73,-24 152,-36 238,-36 246,0 427,71 544,211 117,141 175,349 175,625l0 1359c-30,5 -65,9 -104,12 -39,3 -74,4 -105,4 -30,0 -64,-1 -102,-4 -38,-3 -72,-7 -102,-12l0 -1246c0,-198 -31,-343 -92,-437 -62,-93 -159,-140 -293,-140 -78,0 -152,14 -222,42 -69,28 -130,71 -183,130 -53,58 -96,134 -128,227 -32,94 -48,206 -48,337l0 1087c-31,5 -65,9 -102,12 -38,3 -72,4 -103,4 -30,0 -65,-1 -104,-4 -39,-3 -74,-7 -105,-12l0 -2145zm-2014 1175c5,234 66,405 181,514 116,109 287,163 513,163 197,0 385,-35 564,-104 22,41 40,92 54,152 14,60 22,119 25,178 -92,39 -193,68 -303,88 -110,19 -232,29 -366,29 -195,0 -362,-27 -501,-82 -139,-54 -254,-131 -345,-230 -91,-99 -157,-216 -198,-351 -42,-135 -63,-283 -63,-445 0,-159 20,-307 60,-445 41,-138 103,-258 186,-359 84,-102 189,-183 316,-243 127,-60 277,-90 449,-90 148,0 278,25 389,76 112,50 205,119 280,206 75,88 132,193 171,314 39,121 59,253 59,395 0,39 -2,80 -4,123 -3,43 -6,80 -9,111l-1458 0zm1061 -309c0,-78 -10,-153 -31,-224 -21,-71 -52,-133 -92,-186 -40,-53 -92,-95 -155,-127 -62,-32 -137,-49 -223,-49 -170,0 -300,52 -391,155 -91,103 -146,247 -165,431l1057 0zm-3841 -866c28,-5 57,-9 86,-12 29,-3 59,-4 90,-4 28,0 57,1 88,4 30,3 59,7 87,12 3,6 7,23 11,53 4,29 8,60 12,94 5,33 9,65 13,96 4,31 6,50 6,58 28,-44 61,-87 100,-129 39,-42 86,-80 141,-113 54,-33 115,-60 183,-79 69,-20 145,-30 228,-30 126,0 242,21 349,63 107,42 199,107 276,194 77,88 136,200 180,335 43,135 65,294 65,478 0,368 -100,656 -299,863 -200,208 -482,312 -847,312 -61,0 -124,-4 -188,-13 -64,-8 -120,-19 -167,-33l0 982c-33,6 -69,10 -107,13 -37,2 -71,4 -102,4 -31,0 -65,-2 -102,-4 -38,-3 -72,-7 -103,-13l0 -3131zm414 1794c53,19 107,33 163,41 56,9 128,13 217,13 101,0 193,-16 276,-48 84,-32 156,-82 216,-149 59,-66 107,-151 142,-252 34,-102 52,-223 52,-362 0,-223 -41,-400 -123,-531 -83,-131 -217,-196 -404,-196 -69,0 -136,12 -200,37 -64,25 -122,63 -172,113 -50,50 -90,114 -121,190 -31,77 -46,168 -46,274l0 870zm-2265 33c139,0 260,-27 361,-81 102,-55 186,-134 253,-237 67,-103 117,-227 151,-372 33,-145 50,-309 50,-493 0,-181 -17,-345 -50,-491 -34,-146 -84,-270 -151,-372 -67,-102 -151,-180 -253,-234 -101,-54 -222,-81 -361,-81 -140,0 -260,27 -362,81 -102,54 -186,132 -253,234 -67,102 -117,226 -150,372 -34,146 -50,310 -50,491 0,184 16,348 50,493 33,145 83,269 150,372 67,103 151,182 253,237 102,54 222,81 362,81z"/>
 </g>
</svg>
