<?xml version="1.0" encoding="UTF-8"?>
<!DOCTYPE svg PUBLIC "-//W3C//DTD SVG 1.1//EN" "http://www.w3.org/Graphics/SVG/1.1/DTD/svg11.dtd">
<!-- Creator: CorelDRAW X7 -->
<svg xmlns="http://www.w3.org/2000/svg" xml:space="preserve" width="512px" height="512px" version="1.1" style="shape-rendering:geometricPrecision; text-rendering:geometricPrecision; image-rendering:optimizeQuality; fill-rule:evenodd; clip-rule:evenodd"
viewBox="0 0 51200 51200"
 xmlns:xlink="http://www.w3.org/1999/xlink">
 <defs>
  <style type="text/css">
   <![CDATA[
    .fil0 {fill:#E6E7E8}
    .fil1 {fill:url(#id0)}
   ]]>
  </style>
  <linearGradient id="id0" gradientUnits="userSpaceOnUse" x1="9769.64" y1="9797.27" x2="41430.2" y2="41403.2">
   <stop offset="0" style="stop-opacity:1; stop-color:#3E24FF"/>
   <stop offset="1" style="stop-opacity:1; stop-color:#18BDCF"/>
  </linearGradient>
 </defs>
 <g id="Layer_x0020_1">
  <metadata id="CorelCorpID_0Corel-Layer"/>
  <g id="_305157032">
   <circle class="fil0" cx="25600" cy="25600" r="25600"/>
   <path class="fil1" d="M20638 29394c-18,11 -35,23 -53,35m-5639 -16134c6127,-5298 15270,-5278 21375,59l1651 -1647c-7020,-6241 -17634,-6260 -24676,-60l1650 1648zm12025 9939l3266 1883c82,45 153,113 203,199 149,258 61,588 -197,738l-3272 1886 -1 -1 -1 1 -3228 1860c-88,63 -196,99 -313,99 -300,0 -542,-241 -542,-540l0 -3772 0 -3772 2 0c0,-91 23,-184 72,-268 148,-258 478,-347 736,-199l3245 1870c10,5 20,10 30,16zm-15325 -13234c7956,-7105 20042,-7085 27976,60l1649 -1646c-8846,-8051 -22406,-8071 -31275,-61l1650 1647zm29641 1737c7037,7922 7018,19895 -60,27793l1650 1648c7984,-8810 8003,-22254 60,-31088l-1650 1647zm-1733 29463c-7911,7065 -19906,7085 -27841,60l-1650 1647c8849,7930 22316,7911 31141,-60l-1650 -1647zm-29521 -1602c-7158,-7920 -7177,-19985 -60,-27928l-1650 -1647c-8024,8854 -8004,22390 61,31221l1649 -1646zm22106 -20605l1 0c1707,1684 2765,4022 2765,6607 0,5131 -4166,9289 -9305,9289 -5139,0 -9305,-4158 -9305,-9289 0,-2585 1058,-4923 2765,-6607 214,-211 346,-503 346,-826 0,-643 -521,-1163 -1163,-1163 -320,0 -609,128 -819,336l-1 -1c-2134,2106 -3457,5029 -3457,8261 0,3233 1323,6156 3457,8261l0 1c214,210 346,503 346,827 0,642 -521,1162 -1163,1162 -320,0 -609,-128 -819,-336l-1 1c-2562,-2528 -4149,-6036 -4149,-9916 0,-3879 1587,-7388 4149,-9915l1 1c631,-623 1498,-1007 2455,-1007 1929,0 3492,1561 3492,3487 0,971 -397,1848 -1037,2480l1 1c-1280,1263 -2074,3015 -2074,4953 0,3846 3124,6964 6976,6964 3853,0 6976,-3118 6976,-6964 0,-1938 -794,-3691 -2073,-4953l1 -2c-641,-632 -1038,-1509 -1038,-2479 0,-1927 1564,-3487 3492,-3487 958,0 1825,384 2455,1006 2562,2527 4151,6036 4151,9915 0,3877 -1586,7384 -4145,9911l-5 5c-210,207 -499,335 -818,335 -644,0 -1165,-520 -1165,-1162 0,-324 132,-616 346,-827l0 -1c2134,-2105 3457,-5028 3457,-8261 0,-3232 -1323,-6156 -3457,-8261l-1 0c-210,-207 -499,-336 -818,-336 -643,0 -1164,520 -1164,1163 0,323 133,616 346,826l-1 1zm-20516 -5676c-6211,7030 -6191,17626 60,24633l1650 -1647c-5346,-6094 -5367,-15222 -60,-21339l-1650 -1647zm26363 1715c5228,6094 5209,15132 -59,21204l1650 1647c6172,-6985 6191,-17490 59,-24498l-1650 1647zm-1732 22874c-6082,5258 -15136,5278 -21240,58l-1650 1648c7020,6122 17543,6102 24540,-59l-1650 -1647z"/>
  </g>
 </g>
</svg>
