<?xml version="1.0" encoding="UTF-8"?>
<!DOCTYPE svg PUBLIC "-//W3C//DTD SVG 1.1//EN" "http://www.w3.org/Graphics/SVG/1.1/DTD/svg11.dtd">
<!-- Creator: CorelDRAW X7 -->
<svg xmlns="http://www.w3.org/2000/svg" xml:space="preserve" width="72px" height="72px" version="1.1" style="shape-rendering:geometricPrecision; text-rendering:geometricPrecision; image-rendering:optimizeQuality; fill-rule:evenodd; clip-rule:evenodd"
viewBox="0 0 7200 7200"
 xmlns:xlink="http://www.w3.org/1999/xlink">
 <defs>
  <style type="text/css">
   <![CDATA[
    .fil0 {fill:url(#id0)}
   ]]>
  </style>
  <linearGradient id="id0" gradientUnits="userSpaceOnUse" x1="1152.09" y1="1151.97" x2="6048.15" y2="6048.03">
   <stop offset="0" style="stop-opacity:1; stop-color:#3E24FF"/>
   <stop offset="1" style="stop-opacity:1; stop-color:#18BDCF"/>
  </linearGradient>
 </defs>
 <g id="Layer_x0020_1">
  <metadata id="CorelCorpID_0Corel-Layer"/>
  <path class="fil0" d="M2833 4188c-3,2 -6,3 -8,5m-872 -2499c947,-821 2361,-818 3305,9l255 -255c-1085,-967 -2727,-970 -3816,-9l256 255zm1859 1539l505 292c13,7 24,18 31,31 24,40 10,91 -30,114l-506 292 0 0 0 0 -499 289c-14,9 -31,15 -49,15 -46,0 -84,-38 -84,-84l0 -584 0 -584 1 0c0,-14 3,-29 11,-42 23,-40 74,-54 114,-31l501 290c2,1 4,2 5,2zm-2370 -2049c1231,-1101 3100,-1098 4326,9l255 -255c-1368,-1247 -3464,-1251 -4836,-10l255 256zm4584 269c1088,1227 1085,3081 -9,4305l255 255c1235,-1365 1237,-3447 9,-4816l-255 256zm-268 4564c-1223,1094 -3078,1097 -4305,9l-256 255c1369,1228 3451,1225 4816,-9l-255 -255zm-4565 -249c-1107,-1226 -1110,-3095 -9,-4326l-256 -255c-1241,1372 -1237,3468 10,4836l255 -255zm3418 -3191l0 0c264,260 428,623 428,1023 0,795 -644,1439 -1439,1439 -795,0 -1439,-644 -1439,-1439 0,-400 164,-763 428,-1023 33,-33 53,-78 53,-128 0,-100 -80,-181 -180,-181 -49,0 -94,20 -126,52l0 0c-330,326 -535,779 -535,1280 0,501 205,954 535,1280l0 0c33,32 53,78 53,128 0,99 -80,180 -180,180 -49,0 -94,-20 -126,-52l-1 0c-396,-391 -641,-935 -641,-1536 0,-601 245,-1144 641,-1536l1 0c97,-96 231,-156 379,-156 299,0 540,242 540,541 0,150 -61,286 -160,384l0 0c-198,195 -321,467 -321,767 0,596 483,1079 1079,1079 596,0 1079,-483 1079,-1079 0,-300 -123,-572 -321,-767l0 -1c-99,-97 -160,-233 -160,-384 0,-298 242,-540 540,-540 148,0 282,60 380,156 396,392 641,935 641,1536 0,601 -245,1144 -641,1535l0 1c-33,32 -77,52 -127,52 -99,0 -180,-81 -180,-180 0,-50 21,-96 54,-128l0 0c330,-326 534,-779 534,-1280 0,-501 -204,-954 -534,-1280l0 0c-33,-32 -78,-52 -127,-52 -99,0 -180,81 -180,180 0,50 20,96 54,128l-1 1zm-3172 -880c-961,1089 -958,2731 9,3816l255 -255c-827,-944 -830,-2358 -9,-3306l-255 -255zm4076 266c809,944 806,2344 -9,3285l255 255c955,-1082 958,-2710 10,-3795l-256 255zm-267 3543c-941,815 -2341,818 -3285,9l-255 256c1085,948 2713,945 3795,-10l-255 -255z"/>
 </g>
</svg>
