<?xml version="1.0" encoding="UTF-8"?>
<!DOCTYPE svg PUBLIC "-//W3C//DTD SVG 1.1//EN" "http://www.w3.org/Graphics/SVG/1.1/DTD/svg11.dtd">
<!-- Creator: CorelDRAW X7 -->
<svg xmlns="http://www.w3.org/2000/svg" xml:space="preserve" width="72px" height="72px" version="1.1" style="shape-rendering:geometricPrecision; text-rendering:geometricPrecision; image-rendering:optimizeQuality; fill-rule:evenodd; clip-rule:evenodd"
viewBox="0 0 7200 7200"
 xmlns:xlink="http://www.w3.org/1999/xlink">
 <defs>
  <style type="text/css">
   <![CDATA[
    .fil0 {fill:#E6E7E8}
    .fil1 {fill:url(#id0)}
   ]]>
  </style>
  <linearGradient id="id0" gradientUnits="userSpaceOnUse" x1="1373.9" y1="1377.68" x2="5826.33" y2="5822.44">
   <stop offset="0" style="stop-opacity:1; stop-color:#3E24FF"/>
   <stop offset="1" style="stop-opacity:1; stop-color:#18BDCF"/>
  </linearGradient>
 </defs>
 <g id="Layer_x0020_1">
  <metadata id="CorelCorpID_0Corel-Layer"/>
  <g id="_305161664">
   <circle class="fil0" cx="3600" cy="3600" r="3600"/>
   <path class="fil1" d="M2902 4134c-2,1 -5,3 -7,4m-793 -2268c861,-746 2147,-743 3006,8l232 -232c-987,-877 -2480,-880 -3470,-8l232 232zm1691 1397l459 265c12,6 22,16 29,28 21,36 8,83 -28,104l-460 265 0 0 0 0 -454 262c-13,8 -28,14 -44,14 -42,0 -77,-34 -77,-76l0 -531 0 -530 1 0c0,-13 3,-26 10,-38 21,-36 67,-49 103,-28l457 263c1,1 2,1 4,2zm-2155 -1861c1119,-999 2818,-996 3934,9l232 -232c-1244,-1132 -3151,-1135 -4398,-8l232 231zm4168 245c990,1113 987,2797 -8,3908l232 232c1123,-1239 1125,-3130 8,-4372l-232 232zm-244 4143c-1112,993 -2799,996 -3915,8l-232 232c1245,1115 3138,1112 4380,-9l-233 -231zm-4151 -226c-1007,-1113 -1009,-2810 -9,-3927l-231 -232c-1129,1246 -1126,3149 8,4391l232 -232zm3109 -2897l0 0c240,237 389,566 389,929 0,722 -586,1306 -1309,1306 -723,0 -1308,-584 -1308,-1306 0,-363 148,-692 388,-929 30,-30 49,-71 49,-116 0,-91 -73,-164 -164,-164 -44,0 -85,18 -115,47l0 0c-300,296 -486,707 -486,1162 0,455 186,866 486,1162l0 0c30,29 49,71 49,116 0,90 -73,164 -164,164 -45,0 -85,-18 -115,-48l0 0c-360,-355 -584,-848 -584,-1394 0,-546 224,-1039 584,-1394l0 0c89,-88 211,-142 345,-142 272,0 491,220 491,491 0,136 -55,259 -145,348l0 0c-180,178 -292,425 -292,697 0,541 439,979 981,979 542,0 981,-438 981,-979 0,-272 -111,-519 -291,-697l0 0c-90,-89 -146,-212 -146,-349 0,-270 220,-490 491,-490 135,0 256,54 345,142 360,355 584,848 584,1394 0,545 -223,1038 -583,1394l-1 0c-29,30 -70,48 -115,48 -90,0 -164,-74 -164,-164 0,-45 19,-86 49,-116l0 0c300,-296 486,-707 486,-1162 0,-455 -186,-866 -486,-1162l0 0c-30,-29 -70,-47 -115,-47 -91,0 -164,73 -164,164 0,45 19,86 49,116l0 0zm-2885 -798c-874,988 -871,2478 8,3464l232 -232c-752,-857 -755,-2141 -8,-3001l-232 -231zm3707 241c735,857 732,2128 -8,2982l232 231c868,-982 870,-2459 8,-3445l-232 232zm-244 3216c-855,740 -2128,743 -2987,9l-232 231c988,861 2467,859 3451,-8l-232 -232z"/>
  </g>
 </g>
</svg>
