<?xml version="1.0" encoding="UTF-8"?>
<!DOCTYPE svg PUBLIC "-//W3C//DTD SVG 1.1//EN" "http://www.w3.org/Graphics/SVG/1.1/DTD/svg11.dtd">
<!-- Creator: CorelDRAW X7 -->
<svg xmlns="http://www.w3.org/2000/svg" xml:space="preserve" width="96px" height="96px" version="1.1" style="shape-rendering:geometricPrecision; text-rendering:geometricPrecision; image-rendering:optimizeQuality; fill-rule:evenodd; clip-rule:evenodd"
viewBox="0 0 9600 9600"
 xmlns:xlink="http://www.w3.org/1999/xlink">
 <defs>
  <style type="text/css">
   <![CDATA[
    .fil0 {fill:url(#id0)}
   ]]>
  </style>
  <linearGradient id="id0" gradientUnits="userSpaceOnUse" x1="1536.06" y1="1536.06" x2="8064.06" y2="8064.06">
   <stop offset="0" style="stop-opacity:1; stop-color:#3E24FF"/>
   <stop offset="1" style="stop-opacity:1; stop-color:#18BDCF"/>
  </linearGradient>
 </defs>
 <g id="Layer_x0020_1">
  <metadata id="CorelCorpID_0Corel-Layer"/>
  <path class="fil0" d="M3777 5584c-4,2 -7,4 -11,7m-1163 -3333c1264,-1094 3149,-1090 4408,13l340 -340c-1447,-1289 -3636,-1293 -5088,-13l340 340zm2480 2053l673 389c17,10 32,24 42,41 31,54 13,122 -41,153l-674 389 0 0 -1 0 -665 384c-18,13 -41,21 -65,21 -62,0 -112,-50 -112,-112l0 -779 0 -779 1 0c0,-19 5,-38 15,-55 30,-53 98,-72 152,-41l669 386c2,1 4,2 6,3zm-3160 -2733c1640,-1468 4132,-1464 5768,12l340 -340c-1824,-1662 -4619,-1667 -6448,-12l340 340zm6111 359c1451,1636 1447,4109 -12,5740l340 340c1647,-1819 1651,-4596 13,-6420l-341 340zm-357 6085c-1631,1459 -4104,1463 -5740,12l-340 341c1824,1637 4601,1634 6421,-13l-341 -340zm-6087 -331c-1475,-1636 -1479,-4128 -12,-5768l-340 -340c-1655,1828 -1650,4624 12,6448l340 -340zm4558 -4256l0 0c352,348 571,831 571,1365 0,1060 -859,1919 -1919,1919 -1059,0 -1918,-859 -1918,-1919 0,-534 218,-1017 570,-1365 44,-43 71,-104 71,-170 0,-133 -107,-240 -240,-240 -66,0 -125,26 -169,69l0 0c-440,435 -713,1038 -713,1706 0,668 273,1271 713,1706l0 0c44,44 72,104 72,171 0,133 -108,240 -240,240 -66,0 -126,-26 -169,-69l0 0c-529,-522 -856,-1247 -856,-2048 0,-801 327,-1526 856,-2048l0 0c130,-128 309,-208 506,-208 398,0 720,323 720,721 0,200 -82,381 -214,512l0 0c-264,261 -427,623 -427,1023 0,794 644,1438 1438,1438 794,0 1438,-644 1438,-1438 0,-400 -163,-762 -427,-1023l0 0c-132,-131 -214,-312 -214,-512 0,-398 323,-721 720,-721 198,0 376,80 507,208 528,522 855,1247 855,2048 0,801 -327,1525 -854,2047l-1 1c-44,43 -103,69 -169,69 -133,0 -240,-107 -240,-240 0,-67 27,-127 71,-171l0 0c440,-435 713,-1038 713,-1706 0,-668 -273,-1271 -713,-1706l0 0c-43,-43 -103,-70 -169,-70 -132,0 -240,108 -240,241 0,66 28,127 72,170l-1 0zm-4230 -1172c-1280,1452 -1276,3641 13,5088l340 -340c-1103,-1259 -1107,-3144 -12,-4408l-341 -340zm5436 354c1078,1259 1074,3126 -12,4380l340 340c1272,-1443 1277,-3613 12,-5060l-340 340zm-357 4725c-1254,1086 -3121,1090 -4380,12l-340 340c1448,1264 3617,1260 5060,-12l-340 -340z"/>
 </g>
</svg>
