<?xml version="1.0" encoding="UTF-8"?>
<!DOCTYPE svg PUBLIC "-//W3C//DTD SVG 1.1//EN" "http://www.w3.org/Graphics/SVG/1.1/DTD/svg11.dtd">
<!-- Creator: CorelDRAW X7 -->
<svg xmlns="http://www.w3.org/2000/svg" xml:space="preserve" width="96px" height="96px" version="1.1" style="shape-rendering:geometricPrecision; text-rendering:geometricPrecision; image-rendering:optimizeQuality; fill-rule:evenodd; clip-rule:evenodd"
viewBox="0 0 9600 9600"
 xmlns:xlink="http://www.w3.org/1999/xlink">
 <defs>
  <style type="text/css">
   <![CDATA[
    .fil0 {fill:#E6E7E8}
    .fil1 {fill:url(#id0)}
   ]]>
  </style>
  <linearGradient id="id0" gradientUnits="userSpaceOnUse" x1="1831.82" y1="1836.9" x2="7768.3" y2="7763.22">
   <stop offset="0" style="stop-opacity:1; stop-color:#3E24FF"/>
   <stop offset="1" style="stop-opacity:1; stop-color:#18BDCF"/>
  </linearGradient>
 </defs>
 <g id="Layer_x0020_1">
  <metadata id="CorelCorpID_0Corel-Layer"/>
  <g id="_478401848">
   <circle class="fil0" cx="4800" cy="4800" r="4800"/>
   <path class="fil1" d="M3870 5511c-4,3 -7,5 -10,7m-1058 -3025c1149,-994 2864,-990 4008,11l310 -309c-1316,-1170 -3306,-1174 -4627,-11l309 309zm2255 1863l613 353c15,9 28,22 38,38 28,48 11,110 -37,138l-614 354 0 0 0 0 -605 348c-17,12 -37,19 -59,19 -56,0 -102,-45 -102,-101l0 -707 0 -708 1 0c0,-17 4,-34 13,-50 28,-48 90,-65 138,-37l608 350c2,1 4,2 6,3zm-2873 -2481c1491,-1332 3758,-1329 5245,11l309 -308c-1658,-1510 -4201,-1514 -5864,-12l310 309zm5557 326c1320,1485 1316,3730 -11,5211l310 309c1497,-1652 1500,-4173 11,-5829l-310 309zm-324 5524c-1484,1325 -3733,1328 -5221,11l-309 309c1659,1487 4184,1483 5839,-11l-309 -309zm-5536 -300c-1342,-1485 -1346,-3748 -11,-5237l-309 -309c-1505,1660 -1501,4199 11,5854l309 -308zm4145 -3864l0 0c320,316 519,754 519,1239 0,962 -781,1742 -1745,1742 -963,0 -1745,-780 -1745,-1742 0,-485 199,-923 519,-1239 40,-39 65,-94 65,-155 0,-120 -98,-218 -218,-218 -60,0 -115,24 -154,63l0 0c-400,395 -648,943 -648,1549 0,606 248,1154 648,1549l0 0c40,40 65,95 65,155 0,120 -98,218 -218,218 -60,0 -115,-24 -154,-63l0 0c-480,-474 -778,-1132 -778,-1859 0,-727 298,-1385 778,-1859l0 0c118,-117 281,-189 460,-189 362,0 655,293 655,654 0,182 -74,347 -194,465l0 0c-240,237 -389,566 -389,929 0,721 586,1306 1308,1306 722,0 1308,-585 1308,-1306 0,-363 -149,-692 -389,-929l1 0c-120,-119 -195,-283 -195,-465 0,-361 293,-654 655,-654 179,0 342,72 460,189 481,474 778,1132 778,1859 0,727 -297,1385 -777,1858l-1 1c-39,39 -93,63 -153,63 -121,0 -218,-98 -218,-218 0,-60 24,-115 64,-155l0 0c401,-395 649,-943 649,-1549 0,-606 -249,-1154 -649,-1549l0 0c-39,-39 -93,-63 -153,-63 -121,0 -218,98 -218,218 0,61 24,116 64,155l0 0zm-3847 -1064c-1164,1318 -1161,3305 12,4619l309 -309c-1002,-1143 -1006,-2854 -11,-4001l-310 -309zm4943 322c981,1142 977,2837 -11,3975l310 309c1157,-1310 1161,-3279 11,-4593l-310 309zm-324 4288c-1140,986 -2838,990 -3983,11l-309 309c1316,1148 3289,1144 4601,-11l-309 -309z"/>
  </g>
 </g>
</svg>
